# xmcd
#
# Track frame offsets: 
#        150
#        24600
#        49200
#
# Disc length: 817 seconds
#
# Revision: 0
# Processed by: cddbd v1.5.2PL0 Copyright (c) Steve Scherf et al.
# Submitted via: ExactAudioCopyFreeDBPlugin 1.0
#
DISCID=20032f03
DTITLE=miss emily brown - wire wood wind
DYEAR=2012
DGENRE=pop
TTITLE0=man on wise
TTITLE1=back to the woods
TTITLE2=into the wind
EXTD=
EXTT0=
EXTT1=
EXTT2=
PLAYORDER=
